<?xml version="1.0" encoding="utf-8"?>
<!-- Generator: Adobe Illustrator 27.0.0, SVG Export Plug-In . SVG Version: 6.00 Build 0)  -->
<svg version="1.1" id="mdi-shield-bug-outline" xmlns="http://www.w3.org/2000/svg" xmlns:xlink="http://www.w3.org/1999/xlink"
	 x="0px" y="0px" viewBox="0 0 14.3 14.3" style="enable-background:new 0 0 14.3 14.3;" xml:space="preserve">
<style type="text/css">
	.st0{fill:#FFFFFF;}
</style>
<path class="st0" d="M13.3,10.2l-1.4,1.4h0.7l1-1v-0.4C13.6,10.2,13.3,10.2,13.3,10.2z M13.6,6V4.6h-3c-0.3-0.8-0.8-1.5-1.5-2
	L10.7,1l-1-1L7.8,1.9H6.7c-0.3,0-0.7,0-1,0.1L3.8,0l-1,1.1l1.6,1.6C3.8,3.1,3.3,3.8,3,4.6H0V6h2.7v1.4H0v1.4h2.7v1.4H0v1.4h3
	c0.5,1.6,2,2.7,3.8,2.7c0.6,0,1.1-0.1,1.6-0.3c-0.2-0.4-0.4-0.8-0.5-1.2C7.5,12.9,7.1,13,6.7,13c-1.6,0-2.9-1.3-2.9-2.9V6.2
	c0-1.6,1.3-2.9,2.9-2.9c0.8,0,1.5,0.3,2.1,0.8s0.9,1.2,0.9,2v2.6c0.5-0.3,1.1-0.5,1.8-0.5s1.3,0.2,1.8,0.5h0.4V7.4h-2.7V6
	C10.9,6,13.6,6,13.6,6z M9.8,11.7L9.5,12l0.6,0.6c0.1-0.1,0.2-0.2,0.2-0.4C10.3,12.2,9.8,11.7,9.8,11.7z M13.3,10.2l-1.4,1.4h0.7
	l1-1v-0.4C13.6,10.2,13.3,10.2,13.3,10.2z M13.6,6V4.6h-3c-0.3-0.8-0.8-1.5-1.5-2L10.7,1l-1-1L7.8,1.9H6.7c-0.3,0-0.7,0-1,0.1L3.8,0
	l-1,1.1l1.6,1.6C3.8,3.1,3.3,3.8,3,4.6H0V6h2.7v1.4H0v1.4h2.7v1.4H0v1.4h3c0.5,1.6,2,2.7,3.8,2.7c0.6,0,1.1-0.1,1.6-0.3
	c-0.2-0.4-0.4-0.8-0.5-1.2C7.5,12.9,7.1,13,6.7,13c-1.6,0-2.9-1.3-2.9-2.9V6.2c0-1.6,1.3-2.9,2.9-2.9c0.8,0,1.5,0.3,2.1,0.8
	s0.9,1.2,0.9,2v2.6c0.5-0.3,1.1-0.5,1.8-0.5s1.3,0.2,1.8,0.5h0.4V7.4h-2.7V6C10.9,6,13.6,6,13.6,6z M9.8,11.7L9.5,12l0.6,0.6
	c0.1-0.1,0.2-0.2,0.2-0.4C10.3,12.2,9.8,11.7,9.8,11.7z M13.3,10.2l-1.4,1.4h0.7l1-1v-0.4C13.6,10.2,13.3,10.2,13.3,10.2z M13.6,6
	V4.6h-3c-0.3-0.8-0.8-1.5-1.5-2L10.7,1l-1-1L7.8,1.9H6.7c-0.3,0-0.7,0-1,0.1L3.8,0l-1,1.1l1.6,1.6C3.8,3.1,3.3,3.8,3,4.6H0V6h2.7
	v1.4H0v1.4h2.7v1.4H0v1.4h3c0.5,1.6,2,2.7,3.8,2.7c0.6,0,1.1-0.1,1.6-0.3c-0.2-0.4-0.4-0.8-0.5-1.2C7.5,12.9,7.1,13,6.7,13
	c-1.6,0-2.9-1.3-2.9-2.9V6.2c0-1.6,1.3-2.9,2.9-2.9c0.8,0,1.5,0.3,2.1,0.8s0.9,1.2,0.9,2v2.6c0.5-0.3,1.1-0.5,1.8-0.5
	s1.3,0.2,1.8,0.5h0.4V7.4h-2.7V6C10.9,6,13.6,6,13.6,6z M9.8,11.7L9.5,12l0.6,0.6c0.1-0.1,0.2-0.2,0.2-0.4
	C10.3,12.2,9.8,11.7,9.8,11.7z"/>
<polygon class="st0" points="13.9,10.3 13.6,10.6 12.6,11.6 10.8,13.3 9.5,12 9.8,11.7 10.8,12.7 11.9,11.6 13.3,10.2 13.5,10 "/>
<polygon class="st0" points="14.3,10.3 10.8,13.6 9.1,12 9.8,11.4 10.8,12.4 13.5,9.7 "/>
<rect x="5.4" y="6" class="st0" width="2.7" height="1.4"/>
<rect x="5.4" y="8.7" class="st0" width="2.7" height="1.4"/>
</svg>
