<?xml version="1.0" encoding="utf-8"?>
<!-- Generator: Adobe Illustrator 27.0.0, SVG Export Plug-In . SVG Version: 6.00 Build 0)  -->
<svg version="1.1" id="mdi-shield-bug-outline" xmlns="http://www.w3.org/2000/svg" xmlns:xlink="http://www.w3.org/1999/xlink"
	 x="0px" y="0px" viewBox="0 0 20.5 22" style="enable-background:new 0 0 20.5 22;" xml:space="preserve">
<style type="text/css">
	.st0{fill:#2CD97B;}
</style>
<path class="st0" d="M19.6,2.5H0.9C0.4,2.5,0,2.9,0,3.4v12.2c0,0.5,0.4,0.9,0.9,0.9h10.7v-2H2.9c-0.5,0-0.9-0.4-0.9-0.9V5.4
	c0-0.5,0.4-0.9,0.9-0.9h14.7c0.5,0,0.9,0.4,0.9,0.9v8.2c0,0.5-0.4,0.9-0.9,0.9h-0.1v2h2.1c0.5,0,0.9-0.4,0.9-0.9V3.4
	C20.5,2.9,20.1,2.5,19.6,2.5z"/>
<path class="st0" d="M16.8,13.2v8.7c-0.4,0-0.9-0.2-1.3-0.4c-0.3-0.2-0.6-0.3-0.9-0.3c-0.3,0-0.6,0.1-1,0.3
	c-0.4,0.2-0.9,0.4-1.3,0.4v-8.7H16.8z"/>
<rect x="2.8" y="11.5" class="st0" width="8.8" height="2.4"/>
<rect x="2.8" y="8.3" class="st0" width="7.1" height="2.4"/>
<rect x="2.8" y="5.1" class="st0" width="8.8" height="2.4"/>
<polygon class="st0" points="11.2,9.9 13.1,9.1 12.9,7 14.6,8.2 16.2,7 16,9.1 17.9,9.9 16,10.7 16.2,12.8 14.6,11.6 12.9,12.8 
	13.1,10.7 "/>
</svg>
