<?xml version="1.0" encoding="UTF-8"?>
<svg id="mdi-shield-bug-outline" xmlns="http://www.w3.org/2000/svg" viewBox="0 0 15.08 15.48">
  <defs>
    <style>
      .cls-1 {
        fill: #fff;
      }

      .cls-2, .cls-3 {
        fill: #2cd97b;
      }

      .cls-3 {
        stroke: #2cd97b;
        stroke-miterlimit: 10;
        stroke-width: .5px;
      }
    </style>
  </defs>
  <path class="cls-2" d="M13.6,5.98v-1.36h-2.99c-.27-.81-.82-1.49-1.5-2.04l1.64-1.63-.96-.95-1.9,1.9h-1.09c-.27,0-.68,0-.95,.14L3.94,0l-1.09,1.08,1.64,1.64c-.68,.41-1.23,1.09-1.5,1.9H0v1.36H2.72v1.36H0v1.36H2.72v1.37H0v1.36H2.99c.54,1.63,2.04,2.72,3.81,2.72,.57,0,1.1-.11,1.59-.31,.66-.28,1.22-.73,1.65-1.3h0c.1-.14,.18-.27,.25-.41,.13-.22,.24-.45,.32-.7h2.99v-1.36h-2.72v-1.37h2.72v-1.36h-2.72v-1.36h2.72Zm-8.16,0h2.72v1.36h-2.72v-1.36Zm0,2.72h2.72v1.37h-2.72v-1.37Zm8.16-2.72v-1.36h-2.99c-.27-.81-.82-1.49-1.5-2.04l1.64-1.63-.96-.95-1.9,1.9h-1.09c-.27,0-.68,0-.95,.14L3.94,0l-1.09,1.08,1.64,1.64c-.68,.41-1.23,1.09-1.5,1.9H0v1.36H2.72v1.36H0v1.36H2.72v1.37H0v1.36H2.99c.54,1.63,2.04,2.72,3.81,2.72,.57,0,1.1-.11,1.59-.31,.66-.28,1.22-.73,1.65-1.3h0c.1-.14,.18-.27,.25-.41,.13-.22,.24-.45,.32-.7h2.99v-1.36h-2.72v-1.37h2.72v-1.36h-2.72v-1.36h2.72Zm-8.16,0h2.72v1.36h-2.72v-1.36Zm0,2.72h2.72v1.37h-2.72v-1.37Zm8.16-2.72v-1.36h-2.99c-.27-.81-.82-1.49-1.5-2.04l1.64-1.63-.96-.95-1.9,1.9h-1.09c-.27,0-.68,0-.95,.14L3.94,0l-1.09,1.08,1.64,1.64c-.68,.41-1.23,1.09-1.5,1.9H0v1.36H2.72v1.36H0v1.36H2.72v1.37H0v1.36H2.99c.54,1.63,2.04,2.72,3.81,2.72,.57,0,1.1-.11,1.59-.31,.66-.28,1.22-.73,1.65-1.3h0c.1-.14,.18-.27,.25-.41,.13-.22,.24-.45,.32-.7h2.99v-1.36h-2.72v-1.37h2.72v-1.36h-2.72v-1.36h2.72Zm-8.16,0h2.72v1.36h-2.72v-1.36Zm0,2.72h2.72v1.37h-2.72v-1.37Z"/>
  <circle class="cls-1" cx="11.44" cy="11.85" r="3.64"/>
  <path class="cls-3" d="M13.51,9.98l-2.69,2.69-1.02-1.02-.33,.33,1.34,1.34,3.05-3.01-.37-.33h0Z"/>
  <rect class="cls-2" x="5.44" y="5.98" width="2.72" height="1.36"/>
  <path class="cls-1" d="M8.83,4.05c-.54-.53-1.28-.86-2.09-.86-1.62,0-2.94,1.32-2.94,2.94v3.89c0,1.62,1.32,2.94,2.94,2.94,.41,0,.8-.08,1.16-.24,1.05-.45,1.79-1.49,1.79-2.7v-3.89c0-.81-.33-1.55-.86-2.08Zm-3.39,1.93h2.72v1.36h-2.72v-1.36Zm0,4.09v-1.37h2.72v1.37h-2.72Z"/>
  <rect class="cls-2" x="5.44" y="8.7" width="2.72" height="1.37"/>
</svg>