<?xml version="1.0" encoding="UTF-8"?>
<svg id="mdi-shield-bug-outline" xmlns="http://www.w3.org/2000/svg" viewBox="0 0 17.89 12.72">
  <defs>
    <style>
      .cls-1 {
        fill: #fff;
      }

      .cls-2 {
        fill: #2cd97b;
      }
    </style>
  </defs>
  <path class="cls-2" d="M17.16,8.41l-.21-.19-2.77,2.77-.4-.4-.65-.65-.66,.65-.21,.21,1.79,1.79h.26l2.85-2.81,.73-.72-.73-.65Zm-2,2.18h-.05l.05-.05v.05Z"/>
  <path class="cls-2" d="M0,0V12.59H12.22c-.42-.56-.68-1.25-.7-2H2V2.91l6.58,4.6L15.16,2.91V6.92c.75,.01,1.44,.26,2,.68V0H0ZM8.58,5.07L4.19,2H12.97l-4.39,3.07Z"/>
  <path class="cls-1" d="M14.05,12.59l.13,.13,.13-.13h-.26Zm1.06-2h.05v-.05l-.05,.05Z"/>
  <g>
    <polygon class="cls-2" points="15.16 10.54 15.16 10.59 15.11 10.59 15.16 10.54"/>
    <path class="cls-2" d="M14.05,12.59l.13,.13,.13-.13h-.26Zm1.06-2h.05v-.05l-.05,.05Z"/>
  </g>
</svg>