<?xml version="1.0" encoding="utf-8"?>
<!-- Generator: Adobe Illustrator 27.0.0, SVG Export Plug-In . SVG Version: 6.00 Build 0)  -->
<svg version="1.1" id="Capa_1" xmlns="http://www.w3.org/2000/svg" xmlns:xlink="http://www.w3.org/1999/xlink" x="0px" y="0px"
	 viewBox="0 0 24 24" style="enable-background:new 0 0 24 24;" xml:space="preserve">
<style type="text/css">
	.st0{fill:#2CD97B;}
	.st1{fill:none;stroke:#2CD97B;stroke-width:2;stroke-miterlimit:10;}
	.st2{fill:none;stroke:#2CD97B;stroke-width:1.5;stroke-miterlimit:10;}
</style>
<path class="st0" d="M12,0.2L2.4,4.5l0,6.4c0,5.9,4.1,11.5,9.6,12.9c5.6-1.4,9.6-7,9.6-12.8l0-6.4L12,0.2z M19.5,11.1
	c0,4.6-3.4,9.4-7.5,10.5c-4.1-1.1-7.5-5.9-7.5-10.5l0-5.2L12,2.6l7.5,3.3L19.5,11.1z"/>
<path class="st1" d="M4.5,17c0.9-0.6,3.5-2.4,7.3-2.5c4.1-0.1,6.9,1.8,7.7,2.5"/>
<circle class="st2" cx="12" cy="8.7" r="2.9"/>
</svg>
