<?xml version="1.0" encoding="utf-8"?>
<!-- Generator: Adobe Illustrator 27.0.0, SVG Export Plug-In . SVG Version: 6.00 Build 0)  -->
<svg version="1.1" id="mdi-shield-bug-outline" xmlns="http://www.w3.org/2000/svg" xmlns:xlink="http://www.w3.org/1999/xlink"
	 x="0px" y="0px" viewBox="0 0 24 24" style="enable-background:new 0 0 24 24;" xml:space="preserve">
<style type="text/css">
	.st0{fill:#2CD97B;}
</style>
<path class="st0" d="M9.9,6.6L9.1,7.4l1.2,1.2C9.8,8.9,9.4,9.4,9.2,10H7v1h2v1H7v1h2v1H7v1h2.2c0.4,1.2,1.5,2,2.8,2s2.4-0.8,2.8-2
	H17v-1h-2v-1h2v-1h-2v-1h2v-1h-2.2c-0.2-0.6-0.6-1.1-1.1-1.5l1.2-1.2l-0.7-0.7L12.8,8H12c-0.2,0-0.5,0-0.7,0.1L9.9,6.6 M11,11h2v1
	h-2V11 M11,13h2v1h-2V13 M21,11c0,5.5-3.8,10.7-9,12c-5.2-1.3-9-6.5-9-12V5l9-4l9,4V11 M12,21c3.8-1,7-5.5,7-9.8V6.3l-7-3.1L5,6.3
	v4.9C5,15.5,8.2,20,12,21z"/>
</svg>
